<svg width="3412" height="1017" viewBox="0 0 3412 1017" fill="none" xmlns="http://www.w3.org/2000/svg">
<path opacity="0.994" fill-rule="evenodd" clip-rule="evenodd" d="M3278.5 242.5C3277 242.41 3276 243.08 3275.5 244.5C3276.05 246 3276.05 247.67 3275.5 249.5C3274.5 249.5 3273.5 249.5 3272.5 249.5C3272.5 251.83 3272.5 254.17 3272.5 256.5C3271.17 256.5 3269.83 256.5 3268.5 256.5C3268.33 257.82 3268.66 258.99 3269.5 260C3266.28 260.94 3264.94 263.1 3265.5 266.5C3264.5 266.5 3263.5 266.5 3262.5 266.5C3262.5 268.5 3262.5 270.5 3262.5 272.5C3260.64 272.46 3259.31 273.29 3258.5 275C3258.97 276.3 3258.97 277.8 3258.5 279.5C3257.5 279.5 3256.5 279.5 3255.5 279.5C3255.66 281.53 3255.5 283.53 3255 285.5C3253.37 287.88 3251.2 289.88 3248.5 291.5C3249.05 293 3249.05 294.67 3248.5 296.5C3247.5 296.5 3246.5 296.5 3245.5 296.5C3245.66 298.53 3245.5 300.53 3245 302.5C3243.29 303.31 3242.46 304.64 3242.5 306.5C3241.5 306.5 3240.5 306.5 3239.5 306.5C3239.01 308.81 3238.67 311.14 3238.5 313.5C3237.5 313.5 3236.5 313.5 3235.5 313.5C3235.5 315.5 3235.5 317.5 3235.5 319.5C3233.9 319.31 3232.56 319.81 3231.5 321C3232.55 322.39 3232.72 323.89 3232 325.5C3231.67 325.17 3231.33 324.83 3231 324.5C3229.61 326.76 3227.94 328.76 3226 330.5C3225.5 332.47 3225.34 334.47 3225.5 336.5C3224.5 336.5 3223.5 336.5 3222.5 336.5C3222.68 338.59 3222.35 340.59 3221.5 342.5C3220.68 343.39 3219.68 343.72 3218.5 343.5C3218.5 345.5 3218.5 347.5 3218.5 349.5C3217.5 349.5 3216.5 349.5 3215.5 349.5C3215.5 350.83 3215.5 352.17 3215.5 353.5C3214.5 353.5 3213.5 353.5 3212.5 353.5C3212.92 356.66 3211.75 358.99 3209 360.5C3208.5 362.47 3208.34 364.47 3208.5 366.5C3207.5 366.5 3206.5 366.5 3205.5 366.5C3205.5 367.83 3205.5 369.17 3205.5 370.5C3204.32 370.28 3203.32 370.61 3202.5 371.5C3202.69 373.07 3202.69 374.57 3202.5 376C3201.23 376.31 3200.07 376.81 3199 377.5C3198.5 379.47 3198.34 381.47 3198.5 383.5C3197.5 383.5 3196.5 383.5 3195.5 383.5C3195.5 385.5 3195.5 387.5 3195.5 389.5C3192.31 389.18 3191.31 390.34 3192.5 393C3190.96 393.29 3189.62 393.96 3188.5 395C3188.97 396.3 3188.97 397.8 3188.5 399.5C3187.5 399.5 3186.5 399.5 3185.5 399.5C3185.5 401.83 3185.5 404.17 3185.5 406.5C3183.9 406.31 3182.56 406.81 3181.5 408C3182.55 409.39 3182.72 410.89 3182 412.5C3181.55 410.07 3180.72 409.9 3179.5 412C3179.83 412.33 3180.17 412.67 3180.5 413C3176.39 415.29 3174.72 418.79 3175.5 423.5C3174.5 423.5 3173.5 423.5 3172.5 423.5C3173.11 426.97 3171.78 428.97 3168.5 429.5C3168.86 431.77 3168.19 433.6 3166.5 435C3166.83 435.33 3167.17 435.67 3167.5 436C3164 438.71 3161.17 442.55 3159 447.5C3158.5 449.47 3158.34 451.47 3158.5 453.5C3157.5 453.5 3156.5 453.5 3155.5 453.5C3155.66 455.53 3155.5 457.53 3155 459.5C3153.44 458.79 3152.28 459.46 3151.5 461.5C3151.71 462.09 3152.04 462.59 3152.5 463C3150.96 463.29 3149.62 463.96 3148.5 465C3148.83 465.33 3149.17 465.67 3149.5 466C3148.95 467.84 3147.95 469.34 3146.5 470.5C3145.53 472.4 3145.2 474.4 3145.5 476.5C3142.08 476.24 3141.08 477.57 3142.5 480.5C3141.97 481.19 3141.31 481.69 3140.5 482C3140.83 482.33 3141.17 482.67 3141.5 483C3140.55 483.48 3139.55 483.65 3138.5 483.5C3138.5 484.5 3138.5 485.5 3138.5 486.5C3137.5 486.5 3136.5 486.5 3135.5 486.5C3135.5 488.83 3135.5 491.17 3135.5 493.5C3134.17 493.5 3132.83 493.5 3131.5 493.5C3131.42 494.93 3131.75 496.26 3132.5 497.5C3131.92 499.55 3130.59 500.55 3128.5 500.5C3128.78 503.35 3128.78 506.01 3128.5 508.5C3129.29 510.49 3130.46 510.82 3132 509.5C3131.91 511.64 3132.08 513.97 3132.5 516.5C3133.5 516.5 3134.5 516.5 3135.5 516.5C3135.5 518.83 3135.5 521.17 3135.5 523.5C3136.5 523.5 3137.5 523.5 3138.5 523.5C3139.26 525.61 3139.42 527.61 3139 529.5C3140.3 530.11 3141.47 530.45 3142.5 530.5C3142.08 532.33 3142.08 534.33 3142.5 536.5C3143.5 536.5 3144.5 536.5 3145.5 536.5C3145.5 538.83 3145.5 541.17 3145.5 543.5C3146.5 543.5 3147.5 543.5 3148.5 543.5C3148.77 546.28 3150.11 548.45 3152.5 550C3151.38 552.28 3152.21 553.78 3155 554.5C3155.5 556.47 3155.66 558.47 3155.5 560.5C3156.5 560.5 3157.5 560.5 3158.5 560.5C3159.69 564.81 3161.02 569.15 3162.5 573.5C3163.5 573.5 3164.5 573.5 3165.5 573.5C3165.5 575.83 3165.5 578.17 3165.5 580.5C3166.5 580.5 3167.5 580.5 3168.5 580.5C3168.97 582.2 3168.97 583.7 3168.5 585C3169.08 586.42 3170.08 587.25 3171.5 587.5C3171.69 589.91 3173.03 590.91 3175.5 590.5C3175.5 592.83 3175.5 595.17 3175.5 597.5C3176.5 597.5 3177.5 597.5 3178.5 597.5C3178.5 599.5 3178.5 601.5 3178.5 603.5C3179.82 603.33 3180.99 603.66 3182 604.5C3182.5 606.47 3182.66 608.47 3182.5 610.5C3183.5 610.5 3184.5 610.5 3185.5 610.5C3185.34 612.53 3185.5 614.53 3186 616.5C3187.94 618.24 3189.61 620.24 3191 622.5C3191.33 622.17 3191.67 621.83 3192 621.5C3192.72 623.11 3192.55 624.61 3191.5 626C3192.56 627.19 3193.9 627.69 3195.5 627.5C3195.5 629.5 3195.5 631.5 3195.5 633.5C3196.5 633.5 3197.5 633.5 3198.5 633.5C3198.34 635.53 3198.5 637.53 3199 639.5C3200.01 640.34 3201.18 640.67 3202.5 640.5C3202.5 642.83 3202.5 645.17 3202.5 647.5C3203.5 647.5 3204.5 647.5 3205.5 647.5C3205.5 648.5 3205.5 649.5 3205.5 650.5C3208.6 650.41 3208.93 650.91 3206.5 652C3208.19 653.4 3208.86 655.23 3208.5 657.5C3212.07 657.76 3213.4 659.76 3212.5 663.5C3213.5 663.5 3214.5 663.5 3215.5 663.5C3215.34 665.53 3215.5 667.53 3216 669.5C3217.94 671.24 3219.61 673.24 3221 675.5C3221.33 675.17 3221.67 674.83 3222 674.5C3222.72 676.11 3222.55 677.61 3221.5 679C3222.56 680.19 3223.9 680.69 3225.5 680.5C3225.5 682.83 3225.5 685.17 3225.5 687.5C3226.5 687.5 3227.5 687.5 3228.5 687.5C3228.5 689.5 3228.5 691.5 3228.5 693.5C3229.82 693.33 3230.99 693.66 3232 694.5C3232.45 698.74 3234.45 702.07 3238 704.5C3238.33 706.17 3238.67 707.83 3239 709.5C3240.01 710.34 3241.18 710.67 3242.5 710.5C3242.34 712.53 3242.5 714.53 3243 716.5C3246.84 719.17 3248.68 722.84 3248.5 727.5C3249.83 727.5 3251.17 727.5 3252.5 727.5C3253.11 731.7 3254.28 735.7 3256 739.5C3258.02 741.54 3259.69 743.87 3261 746.5C3261.33 745.83 3261.67 745.17 3262 744.5C3262.5 746.47 3262.66 748.47 3262.5 750.5C3263.5 750.5 3264.5 750.5 3265.5 750.5C3265.5 752.83 3265.5 755.17 3265.5 757.5C3266.5 757.5 3267.5 757.5 3268.5 757.5C3268.7 759.96 3269.37 762.29 3270.5 764.5C3271.09 764.29 3271.59 763.96 3272 763.5C3272.49 764.79 3272.66 766.13 3272.5 767.5C3273.5 767.5 3274.5 767.5 3275.5 767.5C3275.5 769.83 3275.5 772.17 3275.5 774.5C3276.68 774.28 3277.68 774.61 3278.5 775.5C3279.17 777.1 3279.5 778.6 3279.5 780C3280.45 780.48 3281.45 780.65 3282.5 780.5C3283.4 784.5 3284.4 787.84 3285.5 790.5C3286.5 790.5 3287.5 790.5 3288.5 790.5C3288.99 792.81 3289.33 795.14 3289.5 797.5C3290.5 797.5 3291.5 797.5 3292.5 797.5C3292.34 799.53 3292.5 801.53 3293 803.5C3294.71 804.31 3295.54 805.64 3295.5 807.5C3296.55 807.35 3297.55 807.52 3298.5 808C3299.34 809.79 3299.51 811.62 3299 813.5C3300.01 814.34 3301.18 814.67 3302.5 814.5C3302.5 816.5 3302.5 818.5 3302.5 820.5C3303.5 820.5 3304.5 820.5 3305.5 820.5C3305.34 822.53 3305.5 824.53 3306 826.5C3307.07 827.19 3308.23 827.69 3309.5 828C3309.04 828.41 3308.71 828.91 3308.5 829.5C3309.73 830.59 3310.56 831.92 3311 833.5C3311.33 833.17 3311.67 832.83 3312 832.5C3312.49 834.13 3312.66 835.8 3312.5 837.5C3313.5 837.5 3314.5 837.5 3315.5 837.5C3314.83 840.91 3315.83 843.57 3318.5 845.5C3319.31 847.07 3319.64 848.74 3319.5 850.5C3320.5 850.5 3321.5 850.5 3322.5 850.5C3322.5 851.83 3322.5 853.17 3322.5 854.5C3323.5 854.5 3324.5 854.5 3325.5 854.5C3325.5 856.5 3325.5 858.5 3325.5 860.5C3326.5 860.5 3327.5 860.5 3328.5 860.5C3328.99 862.81 3329.33 865.14 3329.5 867.5C3330.5 867.5 3331.5 867.5 3332.5 867.5C3334.47 870.41 3335.47 873.74 3335.5 877.5C3336.5 877.5 3337.5 877.5 3338.5 877.5C3338.99 879.81 3339.33 882.14 3339.5 884.5C3340.5 884.5 3341.5 884.5 3342.5 884.5C3342.5 886.5 3342.5 888.5 3342.5 890.5C3343.5 890.5 3344.5 890.5 3345.5 890.5C3345.23 892.45 3345.89 893.95 3347.5 895C3346.66 896.67 3347.16 896.83 3349 895.5C3349.59 896.9 3349.43 898.23 3348.5 899.5C3351.72 901.14 3353.06 903.81 3352.5 907.5C3353.5 907.5 3354.5 907.5 3355.5 907.5C3355.34 909.53 3355.5 911.53 3356 913.5C3357.07 914.19 3358.23 914.69 3359.5 915C3358.17 915.67 3358.17 916.33 3359.5 917C3360.45 917.48 3361.45 917.65 3362.5 917.5C3362.5 919.83 3362.5 922.17 3362.5 924.5C3363.5 924.5 3364.5 924.5 3365.5 924.5C3365.01 929.69 3367.18 933.36 3372 935.5C3372.5 937.47 3372.66 939.47 3372.5 941.5C3373.5 941.5 3374.5 941.5 3375.5 941.5C3375.5 943.5 3375.5 945.5 3375.5 947.5C3376.68 947.28 3377.68 947.61 3378.5 948.5C3379.35 950.41 3379.68 952.41 3379.5 954.5C3380.5 954.5 3381.5 954.5 3382.5 954.5C3383.2 957.6 3384.2 960.94 3385.5 964.5C3386.68 964.28 3387.68 964.61 3388.5 965.5C3389.35 967.41 3389.68 969.41 3389.5 971.5C3390.5 971.5 3391.5 971.5 3392.5 971.5C3392.5 973.5 3392.5 975.5 3392.5 977.5C3393.5 977.5 3394.5 977.5 3395.5 977.5C3395.5 979.83 3396.33 981.83 3398 983.5C3398.33 983.17 3398.67 982.83 3399 982.5C3399.49 984.13 3399.66 985.8 3399.5 987.5C3400.5 987.5 3401.5 987.5 3402.5 987.5C3402.5 989.83 3402.5 992.17 3402.5 994.5C3403.5 994.5 3404.5 994.5 3405.5 994.5C3405.57 996.7 3406.23 998.7 3407.5 1000.5C3408.09 1000.29 3408.59 999.96 3409 999.5C3410.51 1003.37 3411.35 1007.37 3411.5 1011.5C3410.45 1011.35 3409.45 1011.52 3408.5 1012C3407.17 1012.67 3407.17 1013.33 3408.5 1014C2842.67 1015.39 2276.83 1016.22 1711 1016.5C1143.17 1016.05 575.33 1015.39 7.50037 1014.5C7.50037 1013.5 7.50037 1012.5 7.50037 1011.5C5.85637 1011.71 4.35637 1011.38 3.00037 1010.5C2.50537 1008.53 2.33837 1006.53 2.50037 1004.5C3.82237 1004.67 4.98937 1004.34 6.00037 1003.5C6.49537 1001.53 6.66237 999.53 6.50037 997.5C7.50037 997.5 8.50037 997.5 9.50037 997.5C9.46137 995.64 10.2944 994.31 12.0004 993.5C12.4954 991.53 12.6624 989.53 12.5004 987.5C13.8334 987.5 15.1674 987.5 16.5004 987.5C16.5004 985.5 16.5004 983.5 16.5004 981.5C17.5004 981.5 18.5004 981.5 19.5004 981.5C19.3384 979.47 19.5054 977.47 20.0004 975.5C20.3334 975.83 20.6674 976.17 21.0004 976.5C21.9734 974.61 22.6404 972.61 23.0004 970.5C23.4144 970.96 23.9144 971.29 24.5004 971.5C25.6354 969.29 26.3014 966.96 26.5004 964.5C27.5004 964.5 28.5004 964.5 29.5004 964.5C29.5004 962.17 29.5004 959.83 29.5004 957.5C31.1034 957.69 32.4374 957.19 33.5004 956C32.4464 954.61 32.2804 953.11 33.0004 951.5C33.3334 952.17 33.6674 952.83 34.0004 953.5C35.6694 951.83 36.5024 949.83 36.5004 947.5C37.5004 947.5 38.5004 947.5 39.5004 947.5C39.5004 945.5 39.5004 943.5 39.5004 941.5C40.5004 941.5 41.5004 941.5 42.5004 941.5C42.3184 939.41 42.6524 937.41 43.5004 935.5C44.3254 934.61 45.3254 934.28 46.5004 934.5C47.7964 930.94 48.7964 927.6 49.5004 924.5C50.5004 924.5 51.5004 924.5 52.5004 924.5C52.3384 922.47 52.5054 920.47 53.0004 918.5C54.0114 917.66 55.1784 917.33 56.5004 917.5C56.5164 912.91 58.3494 909.25 62.0004 906.5C62.8134 904.56 63.3134 902.56 63.5004 900.5C64.5004 900.5 65.5004 900.5 66.5004 900.5C66.5004 898.5 66.5004 896.5 66.5004 894.5C67.5004 894.5 68.5004 894.5 69.5004 894.5C69.3384 892.47 69.5054 890.47 70.0004 888.5C70.3334 889.17 70.6674 889.83 71.0004 890.5C71.6554 888.37 72.4894 886.37 73.5004 884.5C74.9954 884.59 75.9954 883.92 76.5004 882.5C75.9484 881 75.9484 879.33 76.5004 877.5C77.5004 877.5 78.5004 877.5 79.5004 877.5C78.5724 873.54 79.9064 870.88 83.5004 869.5C82.5004 867.41 83.1674 865.74 85.5004 864.5C86.4294 863.31 86.7624 861.98 86.5004 860.5C87.5004 860.5 88.5004 860.5 89.5004 860.5C89.5004 858.5 89.5004 856.5 89.5004 854.5C90.5004 854.5 91.5004 854.5 92.5004 854.5C92.6744 852.14 93.0074 849.81 93.5004 847.5C94.5004 847.5 95.5004 847.5 96.5004 847.5C96.3234 845.02 97.3234 843.19 99.5004 842C99.0344 840.7 99.0344 839.2 99.5004 837.5C100.5 837.5 101.5 837.5 102.5 837.5C102.674 835.14 103.007 832.81 103.5 830.5C104.5 830.5 105.5 830.5 106.5 830.5C107.957 827.35 108.957 824.01 109.5 820.5C110.5 820.5 111.5 820.5 112.5 820.5C112.079 817.34 113.245 815.01 116 813.5C116.495 811.53 116.662 809.53 116.5 807.5C117.5 807.5 118.5 807.5 119.5 807.5C119.338 805.47 119.505 803.47 120 801.5C120.333 802.17 120.667 802.83 121 803.5C122.122 801.58 122.956 799.58 123.5 797.5C124.496 797.59 125.329 797.25 126 796.5C126.495 794.53 126.662 792.53 126.5 790.5C127.5 790.5 128.5 790.5 129.5 790.5C129.5 788.5 129.5 786.5 129.5 784.5C132.694 784.82 133.694 783.66 132.5 781C134.503 779.18 135.836 777.01 136.5 774.5C137.5 774.5 138.5 774.5 139.5 774.5C139.5 772.17 139.5 769.83 139.5 767.5C140.833 767.5 142.167 767.5 143.5 767.5C142.167 765.17 142.167 762.83 143.5 760.5C144.5 760.5 145.5 760.5 146.5 760.5C146.343 759.13 146.51 757.79 147 756.5C147.667 757.83 148.333 757.83 149 756.5C149.495 754.53 149.662 752.53 149.5 750.5C151.103 750.69 152.437 750.19 153.5 749C152.725 746.71 153.558 744.88 156 743.5C156.333 741.5 156.667 739.5 157 737.5C157.667 740.17 158.333 740.17 159 737.5C159.49 736.21 159.657 734.87 159.5 733.5C160.5 733.5 161.5 733.5 162.5 733.5C162.833 731.5 163.167 729.5 163.5 727.5C164.5 727.5 165.5 727.5 166.5 727.5C166.5 725.17 166.5 722.83 166.5 720.5C167.5 720.5 168.5 720.5 169.5 720.5C169.338 718.47 169.505 716.47 170 714.5C170.333 715.17 170.667 715.83 171 716.5C172.077 713.72 173.744 711.38 176 709.5C177.721 705.7 178.888 701.7 179.5 697.5C180.833 697.5 182.167 697.5 183.5 697.5C183.5 695.17 183.5 692.83 183.5 690.5C184.5 690.5 185.5 690.5 186.5 690.5C186.5 689.5 186.5 688.5 186.5 687.5C187.5 687.5 188.5 687.5 189.5 687.5C189.784 685.12 189.784 682.96 189.5 681C190.766 680.69 191.933 680.19 193 679.5C193.495 677.53 193.662 675.53 193.5 673.5C194.5 673.5 195.5 673.5 196.5 673.5C197.599 670.84 198.599 667.5 199.5 663.5C201.103 663.69 202.437 663.19 203.5 662C203.034 660.7 203.034 659.2 203.5 657.5C204.5 657.5 205.5 657.5 206.5 657.5C206.5 655.17 206.5 652.83 206.5 650.5C207.552 650.65 208.552 650.48 209.5 650C209.693 648.35 209.86 646.52 210 644.5C211.011 643.66 212.178 643.33 213.5 643.5C213.614 639.79 214.614 636.46 216.5 633.5C217.5 633.5 218.5 633.5 219.5 633.5C219.079 630.34 220.245 628.01 223 626.5C223.495 624.53 223.662 622.53 223.5 620.5C224.5 620.5 225.5 620.5 226.5 620.5C226.5 618.17 226.5 615.83 226.5 613.5C228.103 613.69 229.437 613.19 230.5 612C229.483 610.95 229.316 609.78 230 608.5C230.333 608.83 230.667 609.17 231 609.5C232.669 607.83 233.502 605.83 233.5 603.5C234.5 603.5 235.5 603.5 236.5 603.5C236.5 601.5 236.5 599.5 236.5 597.5C237.5 597.5 238.5 597.5 239.5 597.5C239.5 595.17 239.5 592.83 239.5 590.5C240.822 590.67 241.989 590.34 243 589.5C243.495 587.53 243.662 585.53 243.5 583.5C244.5 583.5 245.5 583.5 246.5 583.5C246.34 581.8 246.506 580.13 247 578.5C247.333 578.83 247.667 579.17 248 579.5C248.465 578.07 249.299 576.9 250.5 576C248.65 572.53 249.65 570.7 253.5 570.5C255.467 567.59 256.467 564.26 256.5 560.5C257.5 560.5 258.5 560.5 259.5 560.5C259.674 558.14 260.007 555.81 260.5 553.5C261.5 553.5 262.5 553.5 263.5 553.5C264.142 549.05 265.142 544.71 266.5 540.5C267.552 540.65 268.552 540.48 269.5 540C269.962 538.28 270.128 536.45 270 534.5C271.011 533.66 272.178 533.33 273.5 533.5C274.142 529.05 275.142 524.71 276.5 520.5C277.552 520.65 278.552 520.48 279.5 520C279.962 518.28 280.128 516.45 280 514.5C281.011 513.66 282.178 513.33 283.5 513.5C283.5 511.17 283.5 508.83 283.5 506.5C284.5 506.5 285.5 506.5 286.5 506.5C286.5 504.5 286.5 502.5 286.5 500.5C285.5 500.5 284.5 500.5 283.5 500.5C283.662 498.47 283.495 496.47 283 494.5C282 493.17 281 493.17 280 494.5C279.508 493.45 279.674 492.45 280.5 491.5C279.273 490.41 278.44 489.08 278 487.5C277.667 487.83 277.333 488.17 277 488.5C276.506 486.87 276.34 485.2 276.5 483.5C275.5 483.5 274.5 483.5 273.5 483.5C273.5 481.17 273.5 478.83 273.5 476.5C270.221 475.97 268.887 473.97 269.5 470.5C268.5 470.5 267.5 470.5 266.5 470.5C266.5 469.17 266.5 467.83 266.5 466.5C265.5 466.5 264.5 466.5 263.5 466.5C263.5 464.5 263.5 462.5 263.5 460.5C262.5 460.5 261.5 460.5 260.5 460.5C260.007 458.19 259.674 455.86 259.5 453.5C258.5 453.5 257.5 453.5 256.5 453.5C255.957 449.99 254.957 446.65 253.5 443.5C252.325 443.72 251.325 443.39 250.5 442.5C249.652 440.59 249.318 438.59 249.5 436.5C248.5 436.5 247.5 436.5 246.5 436.5C246.034 434.8 246.034 433.3 246.5 432C244.323 430.81 243.323 428.98 243.5 426.5C242.325 426.72 241.325 426.39 240.5 425.5C239.652 423.59 239.318 421.59 239.5 419.5C238.5 419.5 237.5 419.5 236.5 419.5C236.5 417.5 236.5 415.5 236.5 413.5C235.5 413.5 234.5 413.5 233.5 413.5C233.502 411.17 232.669 409.17 231 407.5C230.667 407.83 230.333 408.17 230 408.5C229.405 407.1 229.572 405.77 230.5 404.5C229.311 403.57 227.978 403.24 226.5 403.5C226.5 401.17 226.5 398.83 226.5 396.5C225.5 396.5 224.5 396.5 223.5 396.5C223.167 394.5 222.833 392.5 222.5 390.5C221.325 390.72 220.325 390.39 219.5 389.5C220.462 387.12 219.462 386.12 216.5 386.5C216.5 384.17 216.5 381.83 216.5 379.5C215.5 379.5 214.5 379.5 213.5 379.5C213.167 377.5 212.833 375.5 212.5 373.5C211.448 373.65 210.448 373.48 209.5 373C210.694 370.34 209.694 369.18 206.5 369.5C206.5 367.5 206.5 365.5 206.5 363.5C205.5 363.5 204.5 363.5 203.5 363.5C204.211 359.68 203.045 356.68 200 354.5C199.506 352.87 199.34 351.2 199.5 349.5C198.5 349.5 197.5 349.5 196.5 349.5C195.796 346.4 194.796 343.06 193.5 339.5C192.167 339.5 190.833 339.5 189.5 339.5C189.5 337.5 189.5 335.5 189.5 333.5C188.5 333.5 187.5 333.5 186.5 333.5C185.946 328.17 183.613 323.84 179.5 320.5C180.966 317.61 179.966 316.28 176.5 316.5C176.5 314.17 176.5 311.83 176.5 309.5C175.5 309.5 174.5 309.5 173.5 309.5C173.5 308.5 173.5 307.5 173.5 306.5C172.178 306.67 171.011 306.34 170 305.5C169.505 303.53 169.338 301.53 169.5 299.5C168.5 299.5 167.5 299.5 166.5 299.5C166.5 297.5 166.5 295.5 166.5 293.5C165.5 293.5 164.5 293.5 163.5 293.5C163.326 291.14 162.993 288.81 162.5 286.5C161.5 286.5 160.5 286.5 159.5 286.5C159.628 284.35 159.128 282.35 158 280.5C157.667 281.17 157.333 281.83 157 282.5C156.505 280.53 156.338 278.53 156.5 276.5C155.5 276.5 154.5 276.5 153.5 276.5C152.744 274.39 152.577 272.39 153 270.5C151.989 269.66 150.822 269.33 149.5 269.5C149.034 267.8 149.034 266.3 149.5 265C147.323 263.81 146.323 261.98 146.5 259.5C145.5 259.5 144.5 259.5 143.5 259.5C143.007 257.19 142.674 254.86 142.5 252.5C141.5 252.5 140.5 252.5 139.5 252.5C139.5 250.5 139.5 248.5 139.5 246.5C138.5 246.5 137.5 246.5 136.5 246.5C137.056 243.1 135.723 240.94 132.5 240C133.337 238.99 133.67 237.82 133.5 236.5C132.167 236.5 130.833 236.5 129.5 236.5C129.5 234.17 129.5 231.83 129.5 229.5C128.5 229.5 127.5 229.5 126.5 229.5C126.167 227.5 125.833 225.5 125.5 223.5C124.448 223.65 123.448 223.48 122.5 223C123.337 221.99 123.67 220.82 123.5 219.5C122.325 219.72 121.325 219.39 120.5 218.5C119.652 216.59 119.318 214.59 119.5 212.5C118.5 212.5 117.5 212.5 116.5 212.5C116.034 210.8 116.034 209.3 116.5 208C115.377 206.96 114.044 206.29 112.5 206C112.957 205.59 113.291 205.09 113.5 204.5C112.469 203.3 111.635 201.97 111 200.5C110.667 200.83 110.333 201.17 110 201.5C109.506 199.87 109.34 198.2 109.5 196.5C108.5 196.5 107.5 196.5 106.5 196.5C106.5 194.17 106.5 191.83 106.5 189.5C105.5 189.5 104.5 189.5 103.5 189.5C103.007 187.19 102.674 184.86 102.5 182.5C101.5 182.5 100.5 182.5 99.5004 182.5C98.7964 179.4 97.7964 176.06 96.5004 172.5C92.9324 172.24 91.5994 170.24 92.5004 166.5C91.5004 166.5 90.5004 166.5 89.5004 166.5C89.5004 164.17 89.5004 161.83 89.5004 159.5C88.5004 159.5 87.5004 159.5 86.5004 159.5C86.6404 157.88 85.9734 156.71 84.5004 156C85.3454 154.44 84.6794 153.44 82.5004 153C83.3374 151.99 83.6704 150.82 83.5004 149.5C82.1674 149.5 80.8334 149.5 79.5004 149.5C79.5004 147.17 79.5004 144.83 79.5004 142.5C78.5004 142.5 77.5004 142.5 76.5004 142.5C76.4814 140.94 76.1484 139.44 75.5004 138C74.6164 136.9 73.6164 136.4 72.5004 136.5C73.9214 133.57 72.9214 132.24 69.5004 132.5C68.1424 128.29 67.1424 123.95 66.5004 119.5C65.1674 119.5 63.8334 119.5 62.5004 119.5C62.5004 117.17 62.5004 114.83 62.5004 112.5C61.5004 112.5 60.5004 112.5 59.5004 112.5C58.7964 109.4 57.7964 106.06 56.5004 102.5C55.1784 102.67 54.0114 102.34 53.0004 101.5C51.2794 97.7 50.1124 93.7 49.5004 89.5C48.5004 89.5 47.5004 89.5 46.5004 89.5C46.5024 87.17 45.6694 85.17 44.0004 83.5C43.6674 83.83 43.3334 84.17 43.0004 84.5C42.3164 83.22 42.4834 82.05 43.5004 81C42.4374 79.81 41.1034 79.31 39.5004 79.5C39.5004 77.17 39.5004 74.83 39.5004 72.5C38.5004 72.5 37.5004 72.5 36.5004 72.5C36.3014 70.04 35.6354 67.71 34.5004 65.5C32.4714 66.63 32.1374 66.13 33.5004 64C29.9494 62.32 28.6164 59.49 29.5004 55.5C28.5004 55.5 27.5004 55.5 26.5004 55.5C26.5004 53.5 26.5004 51.5 26.5004 49.5C25.1784 49.67 24.0114 49.34 23.0004 48.5C22.5054 46.53 22.3384 44.53 22.5004 42.5C21.5004 42.5 20.5004 42.5 19.5004 42.5C19.6624 40.47 19.4954 38.47 19.0004 36.5C17.2944 35.69 16.4614 34.36 16.5004 32.5C15.1784 32.67 14.0114 32.34 13.0004 31.5C12.2584 26.62 11.0914 22.62 9.50037 19.5C8.50037 19.5 7.50037 19.5 6.50037 19.5C6.66237 17.47 6.49537 15.47 6.00037 13.5C4.98937 12.66 3.82237 12.33 2.50037 12.5C0.98737 8.68003 0.32037 4.68003 0.50037 0.500029C1079.17 0.0600294 2157.83 0.730029 3236.5 2.50003C3236.5 3.50003 3236.5 4.50003 3236.5 5.50003C3290.83 5.33003 3345.17 5.50003 3399.5 6.00003C3398.01 7.16003 3398.17 7.99003 3400 8.50003C3403.11 9.37003 3406.27 9.70003 3409.5 9.50003C3409.66 12.19 3409.5 14.85 3409 17.5C3408.59 17.04 3408.09 16.71 3407.5 16.5C3406.64 19.29 3405.14 21.62 3403 23.5C3402.5 25.47 3402.34 27.47 3402.5 29.5C3401.5 29.5 3400.5 29.5 3399.5 29.5C3399.5 31.5 3399.5 33.5 3399.5 35.5C3398.17 35.5 3396.83 35.5 3395.5 35.5C3395.42 39.99 3393.59 43.65 3390 46.5C3389.5 48.47 3389.34 50.47 3389.5 52.5C3388.18 52.33 3387.01 52.66 3386 53.5C3385.5 55.47 3385.34 57.47 3385.5 59.5C3384.5 59.5 3383.5 59.5 3382.5 59.5C3382.66 61.2 3382.49 62.87 3382 64.5C3381.67 64.17 3381.33 63.83 3381 63.5C3380.29 65.08 3379.46 66.58 3378.5 68C3378.83 68.33 3379.17 68.67 3379.5 69C3378.55 69.48 3377.55 69.65 3376.5 69.5C3376.17 71.5 3375.83 73.5 3375.5 75.5C3374.5 75.5 3373.5 75.5 3372.5 75.5C3372.5 77.83 3372.5 80.17 3372.5 82.5C3371.45 82.35 3370.45 82.52 3369.5 83C3369.31 84.65 3369.14 86.48 3369 88.5C3367.99 89.34 3366.82 89.67 3365.5 89.5C3365.54 91.36 3364.71 92.69 3363 93.5C3362.5 95.47 3362.34 97.47 3362.5 99.5C3361.5 99.5 3360.5 99.5 3359.5 99.5C3359.64 101.26 3359.31 102.93 3358.5 104.5C3355.2 108.11 3352.54 112.11 3350.5 116.5C3349.53 118.4 3349.2 120.4 3349.5 122.5C3348.17 122.5 3346.83 122.5 3345.5 122.5C3345.5 124.83 3345.5 127.17 3345.5 129.5C3344.5 129.5 3343.5 129.5 3342.5 129.5C3342.5 130.5 3342.5 131.5 3342.5 132.5C3341.5 132.5 3340.5 132.5 3339.5 132.5C3339.68 134.59 3339.35 136.59 3338.5 138.5C3337.68 139.39 3336.68 139.72 3335.5 139.5C3335.5 141.83 3335.5 144.17 3335.5 146.5C3334.5 146.5 3333.5 146.5 3332.5 146.5C3332.66 148.53 3332.5 150.53 3332 152.5C3331.67 151.83 3331.33 151.17 3331 150.5C3330.36 151.97 3329.53 153.3 3328.5 154.5C3328.71 155.09 3329.04 155.59 3329.5 156C3327.96 156.29 3326.62 156.96 3325.5 158C3325.97 159.3 3325.97 160.8 3325.5 162.5C3324.5 162.5 3323.5 162.5 3322.5 162.5C3322.5 164.83 3322.5 167.17 3322.5 169.5C3321.17 169.5 3319.83 169.5 3318.5 169.5C3318.42 170.93 3318.75 172.26 3319.5 173.5C3318.62 174.25 3317.62 174.75 3316.5 175C3316.83 175.33 3317.17 175.67 3317.5 176C3316.03 176.71 3315.36 177.88 3315.5 179.5C3314.5 179.5 3313.5 179.5 3312.5 179.5C3312.5 181.83 3312.5 184.17 3312.5 186.5C3311.5 186.5 3310.5 186.5 3309.5 186.5C3310.11 189.97 3308.78 191.97 3305.5 192.5C3305.5 194.83 3305.5 197.17 3305.5 199.5C3304.5 199.5 3303.5 199.5 3302.5 199.5C3302.5 200.5 3302.5 201.5 3302.5 202.5C3301.5 202.5 3300.5 202.5 3299.5 202.5C3299.68 204.59 3299.35 206.59 3298.5 208.5C3297.68 209.39 3296.68 209.72 3295.5 209.5C3295.5 211.83 3295.5 214.17 3295.5 216.5C3294.5 216.5 3293.5 216.5 3292.5 216.5C3292.66 217.87 3292.49 219.21 3292 220.5C3291.33 219.17 3290.67 219.17 3290 220.5C3289.19 222.44 3288.69 224.44 3288.5 226.5C3287.5 226.5 3286.5 226.5 3285.5 226.5C3285.5 228.5 3285.5 230.5 3285.5 232.5C3284.5 232.5 3283.5 232.5 3282.5 232.5C3282.66 234.53 3282.5 236.53 3282 238.5C3281.67 238.17 3281.33 237.83 3281 237.5C3279.56 238.9 3278.73 240.57 3278.5 242.5Z" fill="#CED0CE"/>
</svg>
